<svg xmlns="http://www.w3.org/2000/svg" width="256" height="256" viewBox="0 0 100 100"><rect width="100" height="100" rx="20" fill="#2196f3"></rect><path d="M25.81 64.88L25.81 64.88Q29.88 64.88 31.77 63.30Q33.65 61.73 33.65 59.35L33.65 59.35Q33.65 57.18 32.18 55.88Q30.71 54.59 27.70 53.68L27.70 53.68L23.22 52.28Q20.56 51.44 18.39 50.39Q16.22 49.34 14.68 47.90Q13.14 46.47 12.30 44.54Q11.46 42.62 11.46 39.95L11.46 39.95Q11.46 34.29 15.73 30.96Q20.00 27.63 27.42 27.63L27.42 27.63Q30.36 27.63 32.85 28.09Q35.34 28.55 37.16 29.35Q38.97 30.16 39.99 31.34Q41.01 32.54 41.01 34.01L41.01 34.01Q41.01 35.41 40.34 36.42Q39.67 37.44 38.70 38.07L38.70 38.07Q37.02 36.88 34.25 36Q31.48 35.13 28.20 35.13L28.20 35.13Q24.55 35.13 22.66 36.42Q20.77 37.72 20.77 39.95L20.77 39.95Q20.77 41.78 22.07 42.76Q23.36 43.73 26.16 44.65L26.16 44.65L30.15 45.91Q36.24 47.73 39.60 50.88Q42.97 54.03 42.97 59.42L42.97 59.42Q42.97 62.29 41.84 64.67Q40.73 67.05 38.59 68.76Q36.45 70.48 33.27 71.42Q30.08 72.37 26.02 72.37L26.02 72.37Q22.80 72.37 20.11 71.81Q17.41 71.25 15.45 70.30Q13.49 69.36 12.41 68.06Q11.32 66.77 11.32 65.23L11.32 65.23Q11.32 63.62 12.27 62.46Q13.21 61.31 14.47 60.75L14.47 60.75Q16.22 62.29 19.09 63.58Q21.96 64.88 25.81 64.88ZM79.37 49.83L79.37 49.83Q79.37 46.05 78.31 43.28Q77.27 40.52 75.41 38.73Q73.56 36.95 71 36.07Q68.45 35.20 65.44 35.20L65.44 35.20Q63.83 35.20 62.53 35.30Q61.23 35.41 60.05 35.55L60.05 35.55L60.05 64.31Q61.23 64.59 62.74 64.70Q64.25 64.81 65.72 64.81L65.72 64.81Q72.22 64.81 75.80 61.03Q79.37 57.25 79.37 49.83ZM88.68 49.76L88.68 49.76Q88.68 55.43 87.03 59.66Q85.39 63.90 82.38 66.66Q79.37 69.43 75.13 70.83Q70.90 72.23 65.72 72.23L65.72 72.23Q64.53 72.23 63.13 72.19Q61.73 72.16 60.22 71.98Q58.72 71.81 57.21 71.53Q55.70 71.25 54.38 70.76L54.38 70.76Q51.02 69.50 51.02 66.56L51.02 66.56L51.02 32.26Q51.02 30.99 51.72 30.30Q52.41 29.59 53.67 29.17L53.67 29.17Q56.27 28.27 59.31 28.02Q62.36 27.77 65.09 27.77L65.09 27.77Q70.34 27.77 74.71 29.14Q79.09 30.51 82.17 33.23Q85.25 35.97 86.96 40.09Q88.68 44.23 88.68 49.76Z" fill="#fff"></path></svg>